<svg width="234" height="175" viewBox="0 0 234 175" fill="none" xmlns="http://www.w3.org/2000/svg">
<mask id="mask0_650_7" style="mask-type:luminance" maskUnits="userSpaceOnUse" x="0" y="0" width="234" height="175">
<path d="M24.0002 24.8504H54.8802V153.45H24.0002V24.8504ZM71.7802 24.8504H213.5V50.5704H156.76V153.45H126.07V50.5704H71.7602L71.7802 24.8504ZM11.1502 0.110352C9.80522 0.110352 8.4722 0.375381 7.2292 0.890381C5.9862 1.40638 4.8572 2.16137 3.9062 3.11337C2.9552 4.06537 2.20121 5.19535 1.68721 6.43835C1.17321 7.68235 0.909168 9.01435 0.910168 10.3604V164.51C0.908168 165.856 1.17022 167.19 1.68422 168.435C2.19722 169.679 2.95117 170.811 3.90217 171.764C4.85317 172.717 5.98318 173.473 7.22718 173.988C8.47118 174.504 9.80422 174.77 11.1502 174.77H223.45C224.797 174.77 226.131 174.504 227.375 173.989C228.619 173.473 229.75 172.717 230.702 171.764C231.653 170.811 232.408 169.68 232.923 168.435C233.437 167.191 233.702 165.857 233.7 164.51V10.3604C233.7 7.64135 232.62 5.03437 230.698 3.11237C228.776 1.19037 226.169 0.110352 223.45 0.110352H11.1502Z" fill="white"/>
</mask>
<g mask="url(#mask0_650_7)">
<path d="M233.701 0.110352H0.890625V174.76H233.701V0.110352Z" fill="url(#paint0_linear_650_7)"/>
</g>
<defs>
<linearGradient id="paint0_linear_650_7" x1="0.733625" y1="71.9344" x2="233.35" y2="71.9344" gradientUnits="userSpaceOnUse">
<stop stop-color="#0F7AEF"/>
<stop offset="1" stop-color="#003582"/>
</linearGradient>
</defs>
</svg>
