<svg width="1080" height="683" viewBox="0 0 1080 683" fill="none" xmlns="http://www.w3.org/2000/svg">
<mask id="mask0_476_30" style="mask-type:luminance" maskUnits="userSpaceOnUse" x="664" y="260" width="234" height="175">
<path d="M688 284.85H718.88V413.45H688V284.85ZM735.78 284.85H877.5V310.57H820.76V413.45H790.07V310.57H735.76L735.78 284.85ZM675.15 260.11C673.805 260.11 672.472 260.375 671.229 260.89C669.986 261.406 668.857 262.161 667.906 263.113C666.955 264.065 666.201 265.195 665.687 266.438C665.173 267.682 664.909 269.014 664.91 270.36V424.51C664.908 425.856 665.17 427.19 665.684 428.435C666.197 429.679 666.951 430.811 667.902 431.764C668.853 432.717 669.983 433.473 671.227 433.988C672.471 434.504 673.804 434.77 675.15 434.77H887.45C888.797 434.77 890.131 434.504 891.375 433.989C892.619 433.473 893.75 432.717 894.702 431.764C895.653 430.811 896.408 429.68 896.923 428.435C897.437 427.191 897.702 425.857 897.7 424.51V270.36C897.7 267.641 896.62 265.034 894.698 263.112C892.776 261.19 890.169 260.11 887.45 260.11H675.15Z" fill="white"/>
</mask>
<g mask="url(#mask0_476_30)">
<path d="M897.7 260.11H664.89V434.76H897.7V260.11Z" fill="url(#paint0_linear_476_30)"/>
</g>
<mask id="mask1_476_30" style="mask-type:luminance" maskUnits="userSpaceOnUse" x="917" y="251" width="39" height="39">
<path d="M950.3 251.59H923.07C920.016 251.59 917.54 254.066 917.54 257.12V284.35C917.54 287.404 920.016 289.88 923.07 289.88H950.3C953.354 289.88 955.83 287.404 955.83 284.35V257.12C955.83 254.066 953.354 251.59 950.3 251.59Z" fill="white"/>
</mask>
<g mask="url(#mask1_476_30)">
<path d="M955.83 251.59H917.54V289.88H955.83V251.59Z" fill="url(#paint1_linear_476_30)"/>
</g>
<mask id="mask2_476_30" style="mask-type:luminance" maskUnits="userSpaceOnUse" x="951" y="214" width="16" height="16">
<path d="M963.05 214.78H955.22C953.287 214.78 951.72 216.347 951.72 218.28V226.11C951.72 228.043 953.287 229.61 955.22 229.61H963.05C964.983 229.61 966.55 228.043 966.55 226.11V218.28C966.55 216.347 964.983 214.78 963.05 214.78Z" fill="white"/>
</mask>
<g mask="url(#mask2_476_30)">
<path d="M966.55 214.78H951.72V229.61H966.55V214.78Z" fill="url(#paint2_linear_476_30)"/>
</g>
<mask id="mask3_476_30" style="mask-type:luminance" maskUnits="userSpaceOnUse" x="907" y="207" width="30" height="30">
<path d="M932.62 207.48H911.34C909.092 207.48 907.27 209.302 907.27 211.55V232.83C907.27 235.078 909.092 236.9 911.34 236.9H932.62C934.868 236.9 936.69 235.078 936.69 232.83V211.55C936.69 209.302 934.868 207.48 932.62 207.48Z" fill="white"/>
</mask>
<g mask="url(#mask3_476_30)">
<path d="M936.69 207.48H907.27V236.9H936.69V207.48Z" fill="url(#paint3_linear_476_30)"/>
</g>
<mask id="mask4_476_30" style="mask-type:luminance" maskUnits="userSpaceOnUse" x="873" y="228" width="19" height="18">
<path d="M888.06 228.03H877.5C875.517 228.03 873.91 229.637 873.91 231.62V242.18C873.91 244.162 875.517 245.77 877.5 245.77H888.06C890.043 245.77 891.65 244.162 891.65 242.18V231.62C891.65 229.637 890.043 228.03 888.06 228.03Z" fill="white"/>
</mask>
<g mask="url(#mask4_476_30)">
<path d="M891.65 228.03H873.91V245.77H891.65V228.03Z" fill="url(#paint4_linear_476_30)"/>
</g>
<path d="M374.94 263.58L312.06 394.92L249.17 263.58H187.36V431.29H225.5V297.62L291.35 431.29H332.79L398.41 297.73V431.29H436.78V263.58H374.94Z" fill="white"/>
<path d="M634.68 355.49C630.48 349.377 623.533 344.497 613.84 340.85C604.147 337.203 591.073 334.537 574.62 332.85L537.43 328.6C526.097 327.267 518.163 325.217 513.63 322.45C511.536 321.303 509.799 319.602 508.608 317.533C507.418 315.464 506.82 313.107 506.88 310.72C506.88 304.16 510.67 299.087 518.25 295.5C525.83 291.913 536.013 290.13 548.8 290.15C556.882 290 564.945 291.01 572.74 293.15C579.53 295.15 584.86 298.01 588.74 301.66C592.464 305.029 594.932 309.564 595.74 314.52H636.5C635.955 303.835 631.574 293.705 624.16 285.99C616.613 277.877 606.43 271.543 593.61 266.99C580.79 262.437 566.19 260.16 549.81 260.16C532.91 260.16 518.22 262.207 505.74 266.3C493.26 270.393 483.593 276.327 476.74 284.1C469.887 291.84 466.457 301.227 466.45 312.26C466.45 326.26 471.623 337.187 481.97 345.04C492.317 352.893 508.993 358.013 532 360.4L567.75 364.21C580.4 365.55 589.03 367.67 593.75 370.59C595.932 371.83 597.737 373.639 598.97 375.825C600.203 378.011 600.818 380.491 600.75 383C600.75 389.853 596.68 395.187 588.54 399C580.4 402.813 569.307 404.71 555.26 404.69C546.647 404.834 538.062 403.667 529.8 401.23C522.45 398.92 516.63 395.64 512.27 391.38C508.081 387.425 505.296 382.211 504.34 376.53H463.52C464.053 387.838 468.5 398.61 476.1 407C483.84 415.72 494.417 422.503 507.83 427.35C521.243 432.197 536.797 434.617 554.49 434.61C571.87 434.61 587.033 432.303 599.98 427.69C612.927 423.077 622.997 416.55 630.19 408.11C637.269 399.978 641.115 389.531 641 378.75C641 369.35 638.91 361.597 634.73 355.49" fill="white"/>
<defs>
<linearGradient id="paint0_linear_476_30" x1="664.733" y1="331.934" x2="897.349" y2="331.934" gradientUnits="userSpaceOnUse">
<stop stop-color="#0F7AEF"/>
<stop offset="1" stop-color="#003582"/>
</linearGradient>
<linearGradient id="paint1_linear_476_30" x1="917.56" y1="287.466" x2="955.81" y2="287.466" gradientUnits="userSpaceOnUse">
<stop stop-color="#0F7AEF"/>
<stop offset="1" stop-color="#003582"/>
</linearGradient>
<linearGradient id="paint2_linear_476_30" x1="951.826" y1="209.149" x2="966.652" y2="209.149" gradientUnits="userSpaceOnUse">
<stop stop-color="#0F7AEF"/>
<stop offset="1" stop-color="#003582"/>
</linearGradient>
<linearGradient id="paint3_linear_476_30" x1="907.286" y1="229.929" x2="936.679" y2="229.929" gradientUnits="userSpaceOnUse">
<stop stop-color="#0F7AEF"/>
<stop offset="1" stop-color="#003582"/>
</linearGradient>
<linearGradient id="paint4_linear_476_30" x1="873.963" y1="227.622" x2="891.695" y2="227.622" gradientUnits="userSpaceOnUse">
<stop stop-color="#0F7AEF"/>
<stop offset="1" stop-color="#003582"/>
</linearGradient>
</defs>
</svg>
