<svg width="780" height="228" viewBox="0 0 780 228" fill="none" xmlns="http://www.w3.org/2000/svg">
<mask id="mask0_611_38" style="mask-type:luminance" maskUnits="userSpaceOnUse" x="477" y="52" width="234" height="176">
<path d="M500.641 77.3699H531.521V205.97H500.641V77.3699ZM548.421 77.3699H690.141V103.09H633.401V205.97H602.711V103.09H548.401L548.421 77.3699ZM487.791 52.6299C486.446 52.6299 485.113 52.8949 483.87 53.4099C482.627 53.9259 481.498 54.6809 480.547 55.6329C479.596 56.5849 478.842 57.7149 478.328 58.9579C477.814 60.2019 477.55 61.5339 477.551 62.8799V217.03C477.549 218.376 477.811 219.71 478.325 220.955C478.838 222.199 479.592 223.331 480.543 224.284C481.494 225.237 482.624 225.993 483.868 226.508C485.112 227.024 486.445 227.29 487.791 227.29H700.091C701.438 227.29 702.772 227.024 704.016 226.509C705.26 225.993 706.391 225.237 707.343 224.284C708.294 223.331 709.049 222.2 709.564 220.955C710.078 219.711 710.343 218.377 710.341 217.03V62.8799C710.341 60.1609 709.261 57.5539 707.339 55.6319C705.417 53.7099 702.81 52.6299 700.091 52.6299H487.791Z" fill="white"/>
</mask>
<g mask="url(#mask0_611_38)">
<path d="M710.341 52.6299H477.531V227.28H710.341V52.6299Z" fill="url(#paint0_linear_611_38)"/>
</g>
<mask id="mask1_611_38" style="mask-type:luminance" maskUnits="userSpaceOnUse" x="730" y="44" width="39" height="39">
<path d="M762.94 44.1094H735.71C732.656 44.1094 730.18 46.5854 730.18 49.6394V76.8694C730.18 79.9234 732.656 82.3994 735.71 82.3994H762.94C765.994 82.3994 768.47 79.9234 768.47 76.8694V49.6394C768.47 46.5854 765.994 44.1094 762.94 44.1094Z" fill="white"/>
</mask>
<g mask="url(#mask1_611_38)">
<path d="M768.47 44.1094H730.18V82.3994H768.47V44.1094Z" fill="url(#paint1_linear_611_38)"/>
</g>
<mask id="mask2_611_38" style="mask-type:luminance" maskUnits="userSpaceOnUse" x="764" y="7" width="16" height="16">
<path d="M775.689 7.2998H767.859C765.926 7.2998 764.359 8.8668 764.359 10.7998V18.6298C764.359 20.5628 765.926 22.1298 767.859 22.1298H775.689C777.622 22.1298 779.189 20.5628 779.189 18.6298V10.7998C779.189 8.8668 777.622 7.2998 775.689 7.2998Z" fill="white"/>
</mask>
<g mask="url(#mask2_611_38)">
<path d="M779.189 7.2998H764.359V22.1298H779.189V7.2998Z" fill="url(#paint2_linear_611_38)"/>
</g>
<mask id="mask3_611_38" style="mask-type:luminance" maskUnits="userSpaceOnUse" x="719" y="0" width="31" height="30">
<path d="M745.26 0H723.98C721.732 0 719.91 1.82201 719.91 4.07001V25.35C719.91 27.598 721.732 29.42 723.98 29.42H745.26C747.508 29.42 749.33 27.598 749.33 25.35V4.07001C749.33 1.82201 747.508 0 745.26 0Z" fill="white"/>
</mask>
<g mask="url(#mask3_611_38)">
<path d="M749.33 0H719.91V29.42H749.33V0Z" fill="url(#paint3_linear_611_38)"/>
</g>
<mask id="mask4_611_38" style="mask-type:luminance" maskUnits="userSpaceOnUse" x="686" y="20" width="19" height="19">
<path d="M700.701 20.5498H690.141C688.158 20.5498 686.551 22.1568 686.551 24.1398V34.6998C686.551 36.6818 688.158 38.2898 690.141 38.2898H700.701C702.684 38.2898 704.291 36.6818 704.291 34.6998V24.1398C704.291 22.1568 702.684 20.5498 700.701 20.5498Z" fill="white"/>
</mask>
<g mask="url(#mask4_611_38)">
<path d="M704.291 20.5498H686.551V38.2898H704.291V20.5498Z" fill="url(#paint4_linear_611_38)"/>
</g>
<path d="M187.58 56.0996L124.7 187.44L61.81 56.0996H0V223.81H38.14V90.1396L103.99 223.81H145.43L211.05 90.2496V223.81H249.42V56.0996H187.58Z" fill="white"/>
<path d="M447.32 148.01C443.12 141.897 436.173 137.017 426.48 133.37C416.787 129.723 403.713 127.057 387.26 125.37L350.07 121.12C338.737 119.787 330.803 117.737 326.27 114.97C324.176 113.823 322.439 112.122 321.248 110.053C320.058 107.984 319.46 105.627 319.52 103.24C319.52 96.6797 323.31 91.6067 330.89 88.0197C338.47 84.4327 348.653 82.6497 361.44 82.6697C369.522 82.5197 377.585 83.5297 385.38 85.6697C392.17 87.6697 397.5 90.5297 401.38 94.1797C405.104 97.5487 407.572 102.084 408.38 107.04H449.14C448.595 96.3547 444.214 86.2247 436.8 78.5097C429.253 70.3967 419.07 64.0627 406.25 59.5097C393.43 54.9567 378.83 52.6797 362.45 52.6797C345.55 52.6797 330.86 54.7267 318.38 58.8197C305.9 62.9127 296.233 68.8467 289.38 76.6197C282.527 84.3597 279.097 93.7467 279.09 104.78C279.09 118.78 284.263 129.707 294.61 137.56C304.957 145.413 321.633 150.533 344.64 152.92L380.39 156.73C393.04 158.07 401.67 160.19 406.39 163.11C408.572 164.35 410.377 166.159 411.61 168.345C412.843 170.531 413.458 173.011 413.39 175.52C413.39 182.373 409.32 187.707 401.18 191.52C393.04 195.333 381.947 197.23 367.9 197.21C359.287 197.354 350.702 196.187 342.44 193.75C335.09 191.44 329.27 188.16 324.91 183.9C320.721 179.945 317.936 174.731 316.98 169.05H276.16C276.693 180.358 281.14 191.13 288.74 199.52C296.48 208.24 307.057 215.023 320.47 219.87C333.883 224.717 349.437 227.137 367.13 227.13C384.51 227.13 399.673 224.823 412.62 220.21C425.567 215.597 435.637 209.07 442.83 200.63C449.909 192.498 453.755 182.051 453.64 171.27C453.64 161.87 451.55 154.117 447.37 148.01" fill="white"/>
<defs>
<linearGradient id="paint0_linear_611_38" x1="477.374" y1="124.454" x2="709.99" y2="124.454" gradientUnits="userSpaceOnUse">
<stop stop-color="#0F7AEF"/>
<stop offset="1" stop-color="#003582"/>
</linearGradient>
<linearGradient id="paint1_linear_611_38" x1="730.2" y1="79.9854" x2="768.45" y2="79.9854" gradientUnits="userSpaceOnUse">
<stop stop-color="#0F7AEF"/>
<stop offset="1" stop-color="#003582"/>
</linearGradient>
<linearGradient id="paint2_linear_611_38" x1="764.465" y1="1.6688" x2="779.291" y2="1.6688" gradientUnits="userSpaceOnUse">
<stop stop-color="#0F7AEF"/>
<stop offset="1" stop-color="#003582"/>
</linearGradient>
<linearGradient id="paint3_linear_611_38" x1="719.926" y1="22.449" x2="749.319" y2="22.449" gradientUnits="userSpaceOnUse">
<stop stop-color="#0F7AEF"/>
<stop offset="1" stop-color="#003582"/>
</linearGradient>
<linearGradient id="paint4_linear_611_38" x1="686.604" y1="20.1418" x2="704.336" y2="20.1418" gradientUnits="userSpaceOnUse">
<stop stop-color="#0F7AEF"/>
<stop offset="1" stop-color="#003582"/>
</linearGradient>
</defs>
</svg>
