<svg id="Layer_1" data-name="Layer 1" xmlns="http://www.w3.org/2000/svg" xmlns:xlink="http://www.w3.org/1999/xlink" viewBox="0 0 1080 682.62"><defs><style>.cls-1{fill:none;}.cls-2{clip-path:url(#clip-path);}.cls-3{fill:url(#linear-gradient);}.cls-4{clip-path:url(#clip-path-2);}.cls-5{fill:url(#linear-gradient-2);}.cls-6{clip-path:url(#clip-path-3);}.cls-7{fill:url(#linear-gradient-3);}.cls-8{clip-path:url(#clip-path-4);}.cls-9{fill:url(#linear-gradient-4);}.cls-10{clip-path:url(#clip-path-5);}.cls-11{fill:url(#linear-gradient-5);}.cls-12{fill:#1a1a1a;}</style><clipPath id="clip-path"><path class="cls-1" d="M688,284.85h30.88v128.6H688Zm47.78,0H877.5v25.72H820.76V413.45H790.07V310.57H735.76Zm-60.63-24.74a10.24,10.24,0,0,0-10.24,10.25V424.51a10.24,10.24,0,0,0,10.24,10.26H887.45a10.25,10.25,0,0,0,10.25-10.26V270.36a10.25,10.25,0,0,0-10.25-10.25Z"/></clipPath><linearGradient id="linear-gradient" x1="0.55" y1="3493.23" x2="2.28" y2="3493.23" gradientTransform="matrix(134.46, 0, 0, -134.46, 590.78, 470031.64)" gradientUnits="userSpaceOnUse"><stop offset="0" stop-color="#0f7aef"/><stop offset="1" stop-color="#003582"/></linearGradient><clipPath id="clip-path-2"><rect class="cls-1" x="917.54" y="251.59" width="38.29" height="38.29" rx="5.53"/></clipPath><linearGradient id="linear-gradient-2" x1="8.18" y1="3546.58" x2="9.91" y2="3546.58" gradientTransform="matrix(22.11, 0, 0, -22.11, 736.7, 78702.35)" xlink:href="#linear-gradient"/><clipPath id="clip-path-3"><rect class="cls-1" x="951.72" y="214.78" width="14.83" height="14.83" rx="3.5"/></clipPath><linearGradient id="linear-gradient-3" x1="22.8" y1="3649.51" x2="24.53" y2="3649.51" gradientTransform="matrix(8.57, 0, 0, -8.57, 756.43, 31485.45)" xlink:href="#linear-gradient"/><clipPath id="clip-path-4"><rect class="cls-1" x="907.27" y="207.48" width="29.42" height="29.42" rx="4.07"/></clipPath><linearGradient id="linear-gradient-4" x1="10.39" y1="3566.95" x2="12.12" y2="3566.95" gradientTransform="matrix(16.99, 0, 0, -16.99, 730.76, 60832.41)" xlink:href="#linear-gradient"/><clipPath id="clip-path-5"><rect class="cls-1" x="873.91" y="228.03" width="17.74" height="17.74" rx="3.59"/></clipPath><linearGradient id="linear-gradient-5" x1="15.85" y1="3621.59" x2="17.58" y2="3621.59" gradientTransform="matrix(10.25, 0, 0, -10.25, 711.5, 37348.92)" xlink:href="#linear-gradient"/></defs><g class="cls-2"><rect class="cls-3" x="664.89" y="260.11" width="232.81" height="174.65"/></g><g class="cls-4"><rect class="cls-5" x="917.54" y="251.59" width="38.29" height="38.29"/></g><g class="cls-6"><rect class="cls-7" x="951.72" y="214.78" width="14.83" height="14.83"/></g><g class="cls-8"><rect class="cls-9" x="907.27" y="207.48" width="29.42" height="29.42"/></g><g class="cls-10"><rect class="cls-11" x="873.91" y="228.03" width="17.74" height="17.74"/></g><polygon class="cls-12" points="374.94 263.58 312.06 394.92 249.17 263.58 187.36 263.58 187.36 431.29 225.5 431.29 225.5 297.62 291.35 431.29 332.79 431.29 398.41 297.73 398.41 431.29 436.78 431.29 436.78 263.58 374.94 263.58"/><path class="cls-12" d="M634.68,355.49q-6.3-9.17-20.84-14.64t-39.22-8l-37.19-4.25q-17-2-23.8-6.15a13,13,0,0,1-6.75-11.73q0-9.84,11.37-15.22t30.55-5.35a84.5,84.5,0,0,1,23.94,3c6.79,2,12.12,4.86,16,8.51a22.15,22.15,0,0,1,7,12.86h40.76a44.44,44.44,0,0,0-12.34-28.53q-11.32-12.17-30.55-19t-43.8-6.83q-25.35,0-44.07,6.14t-29,17.8q-10.28,11.61-10.29,28.16,0,21,15.52,32.78T532,360.4l35.75,3.81c12.65,1.34,21.28,3.46,26,6.38a13.84,13.84,0,0,1,7,12.41q0,10.28-12.21,16t-33.28,5.69a85,85,0,0,1-25.46-3.46c-7.35-2.31-13.17-5.59-17.53-9.85a26.46,26.46,0,0,1-7.93-14.85H463.52A48.81,48.81,0,0,0,476.1,407q11.61,13.08,31.73,20.35t46.66,7.26q26.07,0,45.49-6.92t30.21-19.58A44,44,0,0,0,641,378.75q0-14.1-6.27-23.26"/></svg>